HIERARCHY
ROOT Hips
{
	OFFSET -339.306915 540.749023 89.171944
	CHANNELS 6 Xposition Yposition Zposition Zrotation Yrotation Xrotation
	JOINT Spine
	{
		OFFSET 0.000000 2.080078 8.814247
		CHANNELS 6 Xposition Yposition Zposition Zrotation Yrotation Xrotation
		JOINT Spine1
		{
			OFFSET 0.000000 0.000000 8.844139
			CHANNELS 6 Xposition Yposition Zposition Zrotation Yrotation Xrotation
			JOINT Spine2
			{
				OFFSET 0.000000 0.000000 11.682266
				CHANNELS 6 Xposition Yposition Zposition Zrotation Yrotation Xrotation
				JOINT Spine3
				{
					OFFSET 0.000000 0.000000 11.746696
					CHANNELS 6 Xposition Yposition Zposition Zrotation Yrotation Xrotation
					JOINT Neck
					{
						OFFSET 0.000000 0.000000 17.658264
						CHANNELS 6 Xposition Yposition Zposition Zrotation Yrotation Xrotation
						JOINT Neck1
						{
							OFFSET 0.000000 0.000000 5.101517
							CHANNELS 6 Xposition Yposition Zposition Zrotation Yrotation Xrotation
							JOINT Head
							{
								OFFSET 0.000000 0.000000 5.101517
								CHANNELS 6 Xposition Yposition Zposition Zrotation Yrotation Xrotation
								JOINT HeadEnd
								{
									OFFSET 0.000000 0.000000 11.655090
									CHANNELS 6 Xposition Yposition Zposition Zrotation Yrotation Xrotation
									End Site
									{
										OFFSET 0.000000 0.000000 0.100006
									}
								}
							}
						}
					}
					JOINT RightShoulder
					{
						OFFSET -2.625397 0.000000 11.175217
						CHANNELS 6 Xposition Yposition Zposition Zrotation Yrotation Xrotation
						JOINT RightArm
						{
							OFFSET 0.000000 0.000000 10.434708
							CHANNELS 6 Xposition Yposition Zposition Zrotation Yrotation Xrotation
							JOINT RightForeArm
							{
								OFFSET 0.000000 0.000000 29.628418
								CHANNELS 6 Xposition Yposition Zposition Zrotation Yrotation Xrotation
								JOINT RightHand
								{
									OFFSET 0.000000 0.000000 22.857605
									CHANNELS 6 Xposition Yposition Zposition Zrotation Yrotation Xrotation
									JOINT RightHandThumb1
									{
										OFFSET -2.867310 -2.944275 3.959564
										CHANNELS 6 Xposition Yposition Zposition Zrotation Yrotation Xrotation
										JOINT RightHandThumb2
										{
											OFFSET 0.000000 0.000000 3.350403
											CHANNELS 6 Xposition Yposition Zposition Zrotation Yrotation Xrotation
											JOINT RightHandThumb3
											{
												OFFSET 0.000000 0.000000 3.756516
												CHANNELS 6 Xposition Yposition Zposition Zrotation Yrotation Xrotation
												JOINT RightHandThumb4
												{
													OFFSET 0.000000 0.000000 3.147339
													CHANNELS 6 Xposition Yposition Zposition Zrotation Yrotation Xrotation
													End Site
													{
														OFFSET 0.000000 0.000000 0.100006
													}
												}
											}
										}
									}
									JOINT RightHandIndex1
									{
										OFFSET -0.086761 -2.345276 10.030899
										CHANNELS 6 Xposition Yposition Zposition Zrotation Yrotation Xrotation
										JOINT RightHandIndex2
										{
											OFFSET 0.000000 0.000000 4.061096
											CHANNELS 6 Xposition Yposition Zposition Zrotation Yrotation Xrotation
											JOINT RightHandIndex3
											{
												OFFSET 0.000000 0.000000 3.248871
												CHANNELS 6 Xposition Yposition Zposition Zrotation Yrotation Xrotation
												JOINT RightHandIndex4
												{
													OFFSET 0.000000 0.000000 2.639709
													CHANNELS 6 Xposition Yposition Zposition Zrotation Yrotation Xrotation
													End Site
													{
														OFFSET 0.000000 0.000000 0.100006
													}
												}
											}
										}
									}
									JOINT RightHandMiddle1
									{
										OFFSET 0.104095 -0.006775 9.502945
										CHANNELS 6 Xposition Yposition Zposition Zrotation Yrotation Xrotation
										JOINT RightHandMiddle2
										{
											OFFSET 0.000000 0.000000 4.568726
											CHANNELS 6 Xposition Yposition Zposition Zrotation Yrotation Xrotation
											JOINT RightHandMiddle3
											{
												OFFSET 0.000000 0.000000 3.654984
												CHANNELS 6 Xposition Yposition Zposition Zrotation Yrotation Xrotation
												JOINT RightHandMiddle4
												{
													OFFSET 0.000000 0.000000 2.741241
													CHANNELS 6 Xposition Yposition Zposition Zrotation Yrotation Xrotation
													End Site
													{
														OFFSET 0.000000 0.000000 0.100006
													}
												}
											}
										}
									}
									JOINT RightHandRing1
									{
										OFFSET 0.086761 2.267456 8.921707
										CHANNELS 6 Xposition Yposition Zposition Zrotation Yrotation Xrotation
										JOINT RightHandRing2
										{
											OFFSET 0.000000 0.000000 4.061096
											CHANNELS 6 Xposition Yposition Zposition Zrotation Yrotation Xrotation
											JOINT RightHandRing3
											{
												OFFSET 0.000000 0.000000 3.654984
												CHANNELS 6 Xposition Yposition Zposition Zrotation Yrotation Xrotation
												JOINT RightHandRing4
												{
													OFFSET 0.000000 0.000000 2.741241
													CHANNELS 6 Xposition Yposition Zposition Zrotation Yrotation Xrotation
													End Site
													{
														OFFSET 0.000000 0.000000 0.100006
													}
												}
											}
										}
									}
									JOINT RightHandPinky1
									{
										OFFSET -0.173492 4.467224 7.976990
										CHANNELS 6 Xposition Yposition Zposition Zrotation Yrotation Xrotation
										JOINT RightHandPinky2
										{
											OFFSET 0.000000 0.000000 3.350403
											CHANNELS 6 Xposition Yposition Zposition Zrotation Yrotation Xrotation
											JOINT RightHandPinky3
											{
												OFFSET 0.000000 0.000000 2.842758
												CHANNELS 6 Xposition Yposition Zposition Zrotation Yrotation Xrotation
												JOINT RightHandPinky4
												{
													OFFSET 0.000000 0.000000 2.639709
													CHANNELS 6 Xposition Yposition Zposition Zrotation Yrotation Xrotation
													End Site
													{
														OFFSET 0.000000 0.000000 0.100006
													}
												}
											}
										}
									}
									JOINT RightForeArmEnd
									{
										OFFSET 0.000000 0.000000 0.000000
										CHANNELS 6 Xposition Yposition Zposition Zrotation Yrotation Xrotation
										End Site
										{
											OFFSET 0.000000 0.000000 0.100006
										}
									}
								}
								JOINT RightArmEnd
								{
									OFFSET 0.000000 0.000000 0.000000
									CHANNELS 6 Xposition Yposition Zposition Zrotation Yrotation Xrotation
									End Site
									{
										OFFSET 0.000000 0.000000 0.100006
									}
								}
							}
						}
					}
					JOINT LeftShoulder
					{
						OFFSET 2.625397 0.000000 11.175217
						CHANNELS 6 Xposition Yposition Zposition Zrotation Yrotation Xrotation
						JOINT LeftArm
						{
							OFFSET 0.000000 0.000000 10.813629
							CHANNELS 6 Xposition Yposition Zposition Zrotation Yrotation Xrotation
							JOINT LeftForeArm
							{
								OFFSET 0.000000 0.000000 28.724777
								CHANNELS 6 Xposition Yposition Zposition Zrotation Yrotation Xrotation
								JOINT LeftHand
								{
									OFFSET 0.644379 0.328857 25.716171
									CHANNELS 6 Xposition Yposition Zposition Zrotation Yrotation Xrotation
									JOINT LeftHandThumb1
									{
										OFFSET 2.867310 -2.944275 3.959564
										CHANNELS 6 Xposition Yposition Zposition Zrotation Yrotation Xrotation
										JOINT LeftHandThumb2
										{
											OFFSET 0.000000 0.000000 3.350403
											CHANNELS 6 Xposition Yposition Zposition Zrotation Yrotation Xrotation
											JOINT LeftHandThumb3
											{
												OFFSET 0.000000 0.000000 3.756516
												CHANNELS 6 Xposition Yposition Zposition Zrotation Yrotation Xrotation
												JOINT LeftHandThumb4
												{
													OFFSET 0.000000 0.000000 3.100006
													CHANNELS 6 Xposition Yposition Zposition Zrotation Yrotation Xrotation
													End Site
													{
														OFFSET 0.000000 0.000000 0.100006
													}
												}
											}
										}
									}
									JOINT LeftHandIndex1
									{
										OFFSET 0.086761 -2.345276 10.030899
										CHANNELS 6 Xposition Yposition Zposition Zrotation Yrotation Xrotation
										JOINT LeftHandIndex2
										{
											OFFSET 0.000000 0.000000 4.061096
											CHANNELS 6 Xposition Yposition Zposition Zrotation Yrotation Xrotation
											JOINT LeftHandIndex3
											{
												OFFSET 0.000000 0.000000 3.248871
												CHANNELS 6 Xposition Yposition Zposition Zrotation Yrotation Xrotation
												JOINT LeftHandIndex4
												{
													OFFSET 0.000000 0.000000 2.639709
													CHANNELS 6 Xposition Yposition Zposition Zrotation Yrotation Xrotation
													End Site
													{
														OFFSET 0.000000 0.000000 0.100006
													}
												}
											}
										}
									}
									JOINT LeftHandMiddle1
									{
										OFFSET -0.104095 -0.006775 9.502945
										CHANNELS 6 Xposition Yposition Zposition Zrotation Yrotation Xrotation
										JOINT LeftHandMiddle2
										{
											OFFSET 0.000000 0.000000 4.568726
											CHANNELS 6 Xposition Yposition Zposition Zrotation Yrotation Xrotation
											JOINT LeftHandMiddle3
											{
												OFFSET 0.000000 0.000000 3.654984
												CHANNELS 6 Xposition Yposition Zposition Zrotation Yrotation Xrotation
												JOINT LeftHandMiddle4
												{
													OFFSET 0.000000 0.000000 2.741241
													CHANNELS 6 Xposition Yposition Zposition Zrotation Yrotation Xrotation
													End Site
													{
														OFFSET 0.000000 0.000000 0.100006
													}
												}
											}
										}
									}
									JOINT LeftHandRing1
									{
										OFFSET -0.086761 2.267456 8.921707
										CHANNELS 6 Xposition Yposition Zposition Zrotation Yrotation Xrotation
										JOINT LeftHandRing2
										{
											OFFSET 0.000000 0.000000 4.061096
											CHANNELS 6 Xposition Yposition Zposition Zrotation Yrotation Xrotation
											JOINT LeftHandRing3
											{
												OFFSET 0.000000 0.000000 3.654984
												CHANNELS 6 Xposition Yposition Zposition Zrotation Yrotation Xrotation
												JOINT LeftHandRing4
												{
													OFFSET 0.000000 0.000000 2.741241
													CHANNELS 6 Xposition Yposition Zposition Zrotation Yrotation Xrotation
													End Site
													{
														OFFSET 0.000000 0.000000 0.100006
													}
												}
											}
										}
									}
									JOINT LeftHandPinky1
									{
										OFFSET 0.173492 4.467224 7.976990
										CHANNELS 6 Xposition Yposition Zposition Zrotation Yrotation Xrotation
										JOINT LeftHandPinky2
										{
											OFFSET 0.000000 0.000000 3.350403
											CHANNELS 6 Xposition Yposition Zposition Zrotation Yrotation Xrotation
											JOINT LeftHandPinky3
											{
												OFFSET 0.000000 0.000000 2.842758
												CHANNELS 6 Xposition Yposition Zposition Zrotation Yrotation Xrotation
												JOINT LeftHandPinky4
												{
													OFFSET 0.000000 0.000000 2.639709
													CHANNELS 6 Xposition Yposition Zposition Zrotation Yrotation Xrotation
													End Site
													{
														OFFSET 0.000000 0.000000 0.100006
													}
												}
											}
										}
									}
									JOINT LeftForeArmEnd
									{
										OFFSET 0.000000 0.000000 0.000000
										CHANNELS 6 Xposition Yposition Zposition Zrotation Yrotation Xrotation
										End Site
										{
											OFFSET 0.000000 0.000000 0.100006
										}
									}
								}
								JOINT LeftArmEnd
								{
									OFFSET 0.000000 0.000000 0.000000
									CHANNELS 6 Xposition Yposition Zposition Zrotation Yrotation Xrotation
									End Site
									{
										OFFSET 0.000000 0.000000 0.100006
									}
								}
							}
						}
					}
				}
			}
		}
	}
	JOINT RightUpLeg
	{
		OFFSET -11.289948 0.000000 0.000000
		CHANNELS 6 Xposition Yposition Zposition Zrotation Yrotation Xrotation
		JOINT RightLeg
		{
			OFFSET 0.000000 0.000000 -38.200329
			CHANNELS 6 Xposition Yposition Zposition Zrotation Yrotation Xrotation
			JOINT RightFoot
			{
				OFFSET 0.000000 0.000000 -39.900856
				CHANNELS 6 Xposition Yposition Zposition Zrotation Yrotation Xrotation
				JOINT RightToeBase
				{
					OFFSET 0.000000 -15.261658 0.000001
					CHANNELS 6 Xposition Yposition Zposition Zrotation Yrotation Xrotation
					JOINT RightToeBaseEnd
					{
						OFFSET 0.000000 -7.370728 0.000001
						CHANNELS 6 Xposition Yposition Zposition Zrotation Yrotation Xrotation
						End Site
						{
							OFFSET 0.000000 0.000000 0.100000
						}
					}
				}
				JOINT RightLegEnd
				{
					OFFSET 0.000000 0.000000 0.000000
					CHANNELS 6 Xposition Yposition Zposition Zrotation Yrotation Xrotation
					End Site
					{
						OFFSET 0.000000 0.000000 0.100000
					}
				}
			}
			JOINT RightUpLegEnd
			{
				OFFSET 0.000000 0.000000 0.000000
				CHANNELS 6 Xposition Yposition Zposition Zrotation Yrotation Xrotation
				End Site
				{
					OFFSET 0.000000 0.000000 0.099998
				}
			}
		}
	}
	JOINT LeftUpLeg
	{
		OFFSET 11.315674 0.000000 0.000000
		CHANNELS 6 Xposition Yposition Zposition Zrotation Yrotation Xrotation
		JOINT LeftLeg
		{
			OFFSET 0.000000 0.000000 -38.200329
			CHANNELS 6 Xposition Yposition Zposition Zrotation Yrotation Xrotation
			JOINT LeftFoot
			{
				OFFSET 0.000000 0.000000 -39.900856
				CHANNELS 6 Xposition Yposition Zposition Zrotation Yrotation Xrotation
				JOINT LeftToeBase
				{
					OFFSET 0.000000 -15.261658 0.000001
					CHANNELS 6 Xposition Yposition Zposition Zrotation Yrotation Xrotation
					JOINT LeftToeBaseEnd
					{
						OFFSET 0.000000 -7.539978 0.000001
						CHANNELS 6 Xposition Yposition Zposition Zrotation Yrotation Xrotation
						End Site
						{
							OFFSET 0.000000 0.000000 0.100000
						}
					}
				}
				JOINT LeftLegEnd
				{
					OFFSET 0.000000 0.000000 0.000000
					CHANNELS 6 Xposition Yposition Zposition Zrotation Yrotation Xrotation
					End Site
					{
						OFFSET 0.000000 0.000000 0.100000
					}
				}
			}
			JOINT LeftUpLegEnd
			{
				OFFSET 0.000000 0.000000 0.000000
				CHANNELS 6 Xposition Yposition Zposition Zrotation Yrotation Xrotation
				End Site
				{
					OFFSET 0.000000 0.000000 0.099998
				}
			}
		}
	}
}
MOTION
Frames: 2
Frame Time: 0.016667
10.254211 -43.983154 87.537766 -3.383514 -3.478607 -6.765937 0.000011 2.080080 8.814257 0.513571 3.764182 7.103024 -0.000010 -0.000057 8.844145 0.249704 -0.202629 3.682025 -0.000003 0.000013 11.682261 3.472287 0.521221 5.726104 -0.000000 -0.000008 11.746705 1.180777 0.535947 5.548387 0.000015 -0.000008 17.658283 0.068283 1.941833 0.936303 -0.000008 0.000050 5.101540 -1.596175 1.065281 -4.482636 0.000009 0.000026 5.101529 0.544763 0.237116 -16.095240 0.000003 -0.000061 11.655106 0.000000 -0.000000 0.000000 -2.625408 -0.000013 11.175223 9.077667 -79.726968 0.470874 -0.000017 0.000021 10.434711 -34.126774 -65.995712 38.464531 0.000008 -0.000061 29.628433 21.186571 0.381286 57.098186 0.000017 -0.000031 22.857571 -3.984155 6.260566 -8.248626 -2.867298 -2.944290 3.959534 32.430899 -26.206087 38.950206 0.000015 0.000031 3.350418 -32.457657 10.558233 -54.776430 0.000008 0.000015 3.756554 -21.577450 10.761472 -37.395170 -0.000016 0.000002 3.147334 -0.000000 0.000002 0.000000 -0.086765 -2.345259 10.030909 -9.384353 -80.812695 1.246836 -0.000008 -0.000008 4.061127 6.187576 -56.708230 -12.358072 -0.000019 0.000017 3.248859 6.687559 -56.708236 -12.358057 0.000013 0.000012 2.639714 -0.000002 0.000000 0.000000 0.104088 -0.006793 9.502918 -36.916585 -79.301201 32.901714 0.000017 0.000015 4.568708 2.030078 -57.106423 -4.647754 0.000002 0.000016 3.654993 2.530123 -57.106409 -4.647777 0.000015 -0.000010 2.741262 0.000002 -0.000002 0.000002 0.086782 2.267428 8.921694 -94.842900 -75.454145 97.465720 -0.000010 -0.000010 4.061113 -3.442867 -63.782075 7.134611 -0.000029 0.000022 3.654982 -4.442908 -63.782062 7.134645 0.000011 0.000007 2.741264 -0.000002 -0.000001 -0.000002 -0.173479 4.467239 7.976969 82.044745 -112.986567 -70.965993 -0.000038 -0.000027 3.350418 -13.398611 -64.585927 24.148622 0.000023 -0.000027 2.842781 -15.398609 -64.585927 24.148595 0.000001 -0.000004 2.639695 0.000001 -0.000002 -0.000000 -0.000014 -0.000007 -0.000016 0.000001 0.000001 0.000001 0.000008 -0.000009 0.000012 0.000001 0.000001 -0.000001 2.625408 -0.000010 11.175261 -12.283771 84.735627 -0.311840 0.000000 0.000012 10.813610 62.315689 53.119734 55.410080 -0.000008 -0.000015 28.724752 -22.285536 -0.379402 48.660614 0.644395 0.328932 25.716160 -29.940039 2.721142 -3.988264 2.867298 -2.944244 3.959610 -31.758146 23.131851 43.104200 0.000000 0.000015 3.350418 25.758165 -11.067852 -44.071171 0.000004 0.000015 3.756474 17.006252 -9.862966 -30.019651 0.000030 0.000004 3.099990 -0.000001 0.000000 -0.000000 0.086746 -2.345263 10.030876 35.143792 58.599342 29.988099 0.000027 -0.000003 4.061127 2.660213 44.024384 7.806882 0.000010 -0.000017 3.248905 3.160211 44.024384 7.806875 0.000011 -0.000001 2.639745 0.000001 -0.000000 -0.000003 -0.104115 -0.006762 9.502937 24.904137 59.484719 23.715894 -0.000001 0.000023 4.568735 0.642441 43.571303 2.857798 0.000032 -0.000002 3.655003 1.142423 43.571310 2.857810 0.000002 0.000001 2.741241 -0.000001 -0.000001 -0.000001 -0.086742 2.267462 8.921677 12.262783 67.045581 18.530634 0.000015 -0.000017 4.061089 -0.632450 46.966665 -3.756275 0.000003 -0.000006 3.655001 -1.632463 46.966652 -3.756284 0.000026 -0.000002 2.741251 0.000001 -0.000001 -0.000002 0.173492 4.467228 7.977012 -10.042816 70.344699 4.528403 0.000004 0.000015 3.350380 -3.034284 46.306193 -11.738827 0.000008 -0.000023 2.842758 -5.034295 46.306118 -11.738854 0.000007 -0.000003 2.639717 -0.000000 -0.000001 -0.000000 -0.000005 -0.000000 0.000019 0.000000 0.000000 -0.000001 0.000004 0.000063 0.000020 0.000001 0.000000 -0.000001 -11.289947 0.000058 0.000001 13.806219 10.136091 -0.603278 0.000010 0.000028 -38.200329 -0.938142 0.473125 26.760560 0.000032 0.000010 -39.900848 -7.234273 -3.936370 12.141699 0.000011 -15.261647 -0.000005 1.052243 1.171551 -22.791382 -0.000001 -7.370666 0.000000 -0.000000 0.000001 -0.000000 0.000001 0.000062 -0.000002 -0.000000 0.000000 -0.000001 0.000038 0.000006 -0.000006 -0.000001 -0.000000 0.000002 11.315660 -0.000019 -0.000006 5.118004 0.715695 -1.268728 -0.000013 0.000109 -38.200336 0.727322 -0.195640 15.177401 0.000010 -0.000004 -39.900867 4.210728 -0.033796 18.697964 0.000009 -15.261648 0.000004 -1.441321 -0.208279 -20.303355 0.000001 -7.539981 0.000000 0.000001 -0.000000 0.000000 -0.000003 -0.000062 -0.000001 0.000000 -0.000001 0.000003 -0.000000 0.000062 -0.000003 -0.000000 0.000000 -0.000001 
10.808563 -44.211487 87.366226 -3.260014 -3.818392 -7.271004 -0.000008 2.080091 8.814230 0.570078 4.002885 7.439837 -0.000005 -0.000019 8.844130 0.315849 -0.102827 3.800511 0.000007 0.000008 11.682281 3.490737 0.468706 5.952157 -0.000008 -0.000018 11.746710 1.226769 0.380901 5.744977 -0.000013 -0.000005 17.658258 -0.279289 2.053533 -0.016291 0.000011 -0.000010 5.101504 -2.046343 1.130296 -4.978876 0.000015 -0.000020 5.101549 0.485282 0.138638 -16.268899 -0.000000 0.000001 11.655077 -0.000000 -0.000000 0.000000 -2.625404 -0.000019 11.175194 9.281574 -80.061230 0.488536 0.000010 0.000004 10.434704 -37.811958 -65.315760 42.054865 -0.000004 -0.000008 29.628460 20.779626 0.198443 53.350850 0.000011 -0.000029 22.857586 -5.200317 5.746355 -8.704762 -2.867317 -2.944275 3.959549 32.272828 -25.625213 39.728892 0.000000 0.000015 3.350395 -31.211840 10.747239 -52.776732 -0.000008 -0.000008 3.756523 -20.711012 10.637289 -36.005523 0.000004 0.000002 3.147321 -0.000000 -0.000001 0.000000 -0.086769 -2.345261 10.030916 -6.101652 -77.013375 -1.640394 0.000004 -0.000006 4.061111 5.226647 -54.090324 -11.191001 -0.000006 0.000029 3.248886 5.726670 -54.090310 -11.191002 0.000000 0.000003 2.639704 0.000000 0.000003 -0.000003 0.104088 -0.006804 9.502937 -27.564354 -76.296778 23.317991 -0.000010 0.000000 4.568720 1.687312 -54.629683 -4.233758 -0.000006 0.000014 3.654989 2.187329 -54.629660 -4.233779 0.000014 0.000012 2.741251 -0.000001 0.000000 -0.000004 0.086761 2.267473 8.921732 -83.821707 -75.420301 86.011636 0.000019 -0.000044 4.061089 -2.928943 -61.825520 6.556872 -0.000010 -0.000015 3.655008 -3.928947 -61.825513 6.556895 0.000008 -0.000002 2.741248 -0.000001 -0.000001 -0.000002 -0.173486 4.467239 7.976974 86.934737 -112.818012 -76.314175 -0.000023 0.000004 3.350403 -12.123722 -63.294045 22.729548 -0.000027 0.000015 2.842766 -14.123713 -63.294017 22.729522 -0.000011 -0.000066 2.639719 0.000001 0.000002 -0.000002 -0.000013 0.000020 0.000026 -0.000002 -0.000002 0.000002 0.000007 0.000012 0.000009 0.000000 -0.000001 -0.000002 2.625395 0.000059 11.175211 -12.296117 84.756931 -0.339983 0.000015 -0.000012 10.813595 61.072123 53.137014 55.529342 -0.000031 0.000015 28.724804 -22.402746 -0.497790 49.060880 0.644297 0.328820 25.716160 -30.829804 2.774675 -4.239552 2.867311 -2.944290 3.959564 -31.729845 22.942044 43.364219 -0.000008 0.000031 3.350403 25.337470 -11.058746 -43.400637 -0.000008 0.000008 3.756542 16.725402 -9.787727 -29.562148 0.000006 -0.000002 3.100024 0.000001 0.000001 -0.000000 0.086769 -2.345261 10.030899 33.196908 57.074290 28.889836 0.000032 -0.000056 4.061111 2.438905 42.827168 7.484970 -0.000004 -0.000002 3.248878 2.938921 42.827154 7.484972 -0.000008 -0.000002 2.639734 -0.000001 -0.000002 0.000002 -0.104095 -0.006781 9.502945 23.602736 58.094263 22.756493 0.000015 0.000020 4.568726 0.570627 42.500832 2.752635 0.000045 0.000009 3.654985 1.070649 42.500937 2.752655 0.000010 -0.000010 2.741279 0.000001 -0.000001 -0.000002 -0.086746 2.267447 8.921692 11.532175 65.945893 17.974807 0.000013 0.000001 4.061104 -0.557406 46.169719 -3.652937 0.000015 0.000031 3.654982 -1.557345 46.169753 -3.652866 -0.000002 -0.000001 2.741264 0.000001 -0.000000 -0.000002 0.173477 4.467211 7.976986 -9.809767 69.715317 5.243345 -0.000004 0.000016 3.350410 -2.888823 45.816072 -11.536820 -0.000008 -0.000011 2.842735 -4.888820 45.816086 -11.536849 0.000008 0.000004 2.639715 -0.000001 0.000001 0.000002 0.000006 -0.000007 0.000003 0.000000 -0.000000 0.000002 -0.000054 -0.000008 -0.000001 0.000002 -0.000002 -0.000001 -11.289951 0.000000 0.000004 14.288057 10.561948 -0.678448 -0.000021 0.000045 -38.200321 -0.874107 0.476297 28.583192 -0.000007 0.000039 -39.900848 -7.947679 -4.140403 11.814835 -0.000009 -15.261639 0.000000 0.964431 1.237675 -22.697364 0.000001 -7.370666 0.000001 -0.000000 -0.000000 -0.000000 -0.000003 0.000060 -0.000002 0.000000 0.000000 -0.000002 0.000001 0.000005 -0.000001 -0.000001 0.000001 0.000001 11.315636 0.000007 -0.000014 4.380337 1.499313 -1.167310 -0.000027 0.000052 -38.200325 0.648581 -0.189448 16.281784 -0.000007 0.000011 -39.900864 5.021610 -0.217530 17.945562 0.000001 -15.261621 0.000002 -1.451308 -0.181395 -19.791240 0.000004 -7.539918 0.000001 0.000000 0.000000 -0.000000 -0.000002 -0.000062 0.000001 0.000000 -0.000000 0.000002 -0.000001 0.000060 -0.000006 0.000000 0.000000 -0.000001 
